# xmcd
#
# Track frame offsets:
#	150
#	20550
#	38461
#	57064
#	75024
#	93241
#	108412
#	128851
#	148026
#	165191
#	182142
#	197036
#
# Disc length: 2840 seconds
#
# Revision: 1
# Processed by: cddbd v1.5.2PL0 Copyright (c) Steve Scherf et al.
# Submitted via: audiograbber 1.83.01
#
DISCID=890b160c
DTITLE=Tim McGraw - Greatest Hits 3
DYEAR=2008
DGENRE=
TTITLE0=Back When
TTITLE1=Last Dollar (Fly Away)
TTITLE2=If You're Reading This [Live]
TTITLE3=Do You Want Fries with That
TTITLE4=Unbroken
TTITLE5=Can't Be Really Gone
TTITLE6=Angry All the Time
TTITLE7=Suspicions
TTITLE8=Find out Who Your Friends Are
TTITLE9=Let It Go
TTITLE10=Real Good Man [Live]
TTITLE11=Nine Lives (Freaturing Def Leppard)
EXTD=
EXTT0=
EXTT1=
EXTT2=
EXTT3=
EXTT4=
EXTT5=
EXTT6=
EXTT7=
EXTT8=
EXTT9=
EXTT10=
EXTT11=
PLAYORDER=
